# xmcd
#
# Track frame offsets:
#       150
#       27658
#       46836
#       72682
#       87486
#       115898
#       152768
#       176783
#       203011
#       233019
#       253479
#       274336
#       309737
#
# Disc length: 4306 seconds
#
# Revision: 1
# Processed by: cddbd v1.4PL0 Copyright (c) Steve Scherf et al.
# Submitted via: CD-DA_X-Tractor v0.21
#
DISCID=c410d00d
DTITLE=realejo quartet - kinobox
DYEAR=1900
DGENRE=
TTITLE0=play!
TTITLE1=georgia
TTITLE2=verão de 72
TTITLE3=tico tico
TTITLE4=urbano
TTITLE5=karlsplatz
TTITLE6=tropic'n'blues
TTITLE7=infants
TTITLE8=café da praia
TTITLE9=samba de vez
TTITLE10=kinobox
TTITLE11=insensatez
TTITLE12=Data Track
EXTD=
EXTT0=
EXTT1=
EXTT2=
EXTT3=
EXTT4=
EXTT5=
EXTT6=
EXTT7=
EXTT8=
EXTT9=
EXTT10=
EXTT11=
EXTT12=
PLAYORDER=
